PathFileType	4	(X/Y/Z)	Star.trc	
DataRate	CameraRate	NumFrames	NumMarkers	Units	OrigDataRate	OrigDataStartFrame	OrigNumFrames	
100.00	100.00	59	6	mm	100.00	526	1362	
Frame#	Time	LThighSuperior			LThighInferior			LThighLateral			LAsis			RAsis			SACR			
		X1	Y1	Z1	X2	Y2	Z2	X3	Y3	Z3	X4	Y4	Z4	X5	Y5	Z5	X6	Y6	Z6	

341	3.400	-28.97045	31.79806	730.59729	0.99251	27.93000	585.59119	15.45178	120.43433	666.69763	31.80546	105.95914	939.72437	277.91794	81.77829	971.59808	155.13893	-87.21391	949.40918 
342	3.410	-28.37110	33.15612	730.70038	1.40945	28.89356	585.54175	16.09181	121.61949	666.59668	32.70340	107.80909	939.60742	278.95135	84.53571	970.68323	156.17816	-84.82371	949.28650 
343	3.420	-27.73851	34.61526	730.88611	1.69891	30.08188	585.70239	17.22978	123.11021	666.77570	33.63424	109.78838	939.52399	280.08914	87.32704	969.72302	157.70877	-82.94651	949.84558 
344	3.430	-27.17804	36.08261	731.10968	2.03860	31.09688	585.91730	17.16191	124.16921	666.32147	34.45906	111.52648	939.39801	281.23740	90.04068	968.72156	158.98584	-80.55484	950.03186 
345	3.440	-26.62167	37.39310	731.29077	2.51749	31.82313	586.02124	17.48937	125.27487	666.06476	35.27028	113.25022	939.28900	282.34970	92.70784	967.87579	159.98788	-78.07380	950.03705 
346	3.450	-26.05798	38.60495	731.37170	3.02399	32.58819	586.13049	18.13691	126.42223	666.02179	36.11327	115.00330	939.23865	283.41931	95.39719	967.19318	161.46596	-75.99353	950.73969 
347	3.460	-25.54937	39.63811	731.59003	3.47867	33.49759	586.33649	18.80838	127.42186	665.98834	37.01165	116.74143	939.21350	284.43716	98.08788	966.54236	162.54442	-73.85965	951.12128 
348	3.470	-24.98322	40.50446	731.85645	3.96994	34.21950	586.47186	19.31334	128.32025	665.87482	37.92746	118.43989	939.15961	285.48505	100.69752	965.89575	163.87740	-71.42313	951.35724 
349	3.480	-24.22278	41.61355	731.91669	4.50211	34.74810	586.54510	19.78509	129.29913	665.74323	38.76714	120.00493	939.04736	286.57050	103.26868	965.25616	165.50676	-69.21323	951.80328 
350	3.490	-23.42792	42.82063	731.98914	5.10751	35.29731	586.77661	20.26490	130.25571	665.65485	39.54442	121.55735	938.98676	287.65128	105.90502	964.67047	166.63860	-67.42070	952.29474 
351	3.500	-22.73441	43.85017	732.27991	5.83013	35.74688	587.13202	20.67548	130.99925	665.64948	40.28495	123.10085	939.06946	288.71356	108.57167	964.16534	168.39195	-65.02078	952.83868 
352	3.510	-22.41090	43.94996	732.87878	6.50442	36.07154	587.47729	21.10036	131.56766	665.72168	40.98008	124.45794	939.21460	289.74573	111.14310	963.58368	169.80510	-63.05278	953.44086 
353	3.520	-23.05661	44.89593	733.31488	7.06034	36.37886	587.78918	21.58626	132.11087	665.80469	41.68127	125.69095	939.36218	290.77084	113.63922	962.86945	171.13316	-61.14391	954.00476 
354	3.530	-22.37205	45.59479	733.53198	7.55830	36.77077	588.09869	22.02870	132.64563	665.85822	42.42023	126.90077	939.49261	291.79129	116.23121	962.08826	172.43939	-59.17472	954.59229 
355	3.540	-19.77960	46.50569	733.53784	8.02444	37.33274	588.44232	22.39931	133.16486	665.88135	43.13879	128.08260	939.54510	292.79181	118.94334	961.29779	173.82268	-56.99514	955.23853 
356	3.550	-19.16778	47.09010	733.75049	8.44167	37.90784	588.71948	22.75702	133.72177	665.84528	43.88890	129.39330	939.52979	293.79727	121.65074	960.43353	175.17740	-54.63172	955.68018 
357	3.560	-18.57288	47.53493	733.89117	8.81805	38.33331	588.82935	23.08485	134.28070	665.70575	44.75441	130.81241	939.44104	294.90524	124.21268	959.36169	176.98296	-52.69922	956.21753 
358	3.570	-18.08336	47.84791	733.93610	9.18964	38.60644	588.86951	23.39414	134.83101	665.45569	45.72861	132.20198	939.18097	296.07822	126.62527	958.17450	178.36557	-50.90973	956.73438 
359	3.580	-16.85999	49.10683	733.76709	9.58895	38.74815	588.90393	23.71895	135.39806	665.13232	46.75344	133.57196	938.81323	297.27466	128.83307	956.97778	179.74728	-49.41795	957.22900 
360	3.590	-16.81765	49.44750	733.84967	10.08512	38.86643	588.88800	24.16570	135.94312	664.78625	47.86209	135.00110	938.46368	298.59021	130.72993	955.80518	181.15300	-47.61953	957.75604 
361	3.600	-18.16685	50.14096	734.55103	10.67889	39.09776	588.98834	24.89264	136.50241	664.47540	49.08183	136.26553	938.16626	300.01834	132.36615	954.79663	182.41623	-46.12666	958.32306 
362	3.610	-17.48145	51.17017	734.70404	11.42565	39.54705	589.26440	25.90031	137.09216	664.25256	50.43063	137.34045	937.96771	301.46671	133.75230	954.03522	183.46898	-44.92995	959.00458 
363	3.620	-14.98672	52.25633	734.51453	12.33759	40.16068	589.41064	27.17755	137.73619	664.13593	51.87775	138.45102	937.79919	302.87918	134.81039	953.47296	184.25949	-43.49208	959.47345 
364	3.630	-9.70694	56.60760	733.10004	13.26062	40.87403	589.39905	28.74199	138.48120	664.10706	53.30270	139.43365	937.61523	304.31946	135.52974	953.11115	184.81398	-42.86211	960.88763 
365	3.640	-8.38597	58.02277	733.14380	14.16748	41.82892	589.42224	30.51217	139.19322	664.11188	54.82815	140.30060	937.45978	305.83499	135.95830	952.97906	185.44325	-42.14210	962.14697 
366	3.650	-8.76636	58.05125	733.81982	15.10030	42.92145	589.53870	32.48067	139.86882	664.20343	56.48262	141.15015	937.37341	307.44037	136.15791	953.07251	186.08008	-41.43206	963.57080 
367	3.660	-8.67163	58.18011	734.30890	16.10073	43.91172	589.69904	34.54842	140.58997	664.42212	58.14143	141.90535	937.40131	309.07370	136.15282	953.43359	186.60556	-40.90418	965.12488 
368	3.670	-8.14542	58.48584	734.72797	17.18303	44.68703	589.81714	36.59946	141.21124	664.70587	59.79538	142.48787	937.53973	310.61646	135.89861	954.10541	186.96465	-40.61373	966.79510 
369	3.680	-7.39902	59.01434	735.21741	18.37157	45.24495	590.08136	38.86143	141.52596	665.15930	61.35722	142.82660	937.75330	312.10037	135.64804	955.04968	187.44960	-40.45386	968.58087 
370	3.690	-6.43090	59.34136	735.73541	19.59514	45.67420	590.55505	41.00825	141.54758	665.77405	62.84258	142.87750	938.01190	313.49258	135.66554	956.08978	188.14777	-40.46340	970.42004 
371	3.700	-5.08647	59.17077	736.27527	20.70869	45.90611	591.09131	42.58202	141.46423	666.46375	64.34473	142.64822	938.41901	314.81842	135.47141	956.97186	188.88319	-40.51429	972.19769 
372	3.710	-3.89236	58.85363	736.88226	21.75596	45.86856	591.71759	44.08920	141.15361	667.34094	65.72853	142.24615	939.01263	316.15427	134.94505	957.62128	189.85837	-40.28307	973.66296 
373	3.720	-2.65621	58.46127	737.42480	22.67927	45.48910	592.32080	45.63029	140.41380	668.34625	66.91961	141.73123	939.70660	317.35349	134.73746	958.05524	191.12340	-40.02909	975.01465 
374	3.730	-0.58458	57.88477	737.69214	23.46428	44.80082	592.91473	46.66223	139.45891	669.25287	67.99783	141.14145	940.45984	318.38321	134.82655	958.15277	192.55565	-39.98930	976.24445 
375	3.740	1.68974	57.28065	737.87421	24.24176	43.79005	593.52264	46.87747	138.54691	669.88733	68.92750	140.45485	941.03168	319.35336	134.89220	957.87775	194.31851	-40.07077	977.10779 
376	3.750	1.98173	55.58121	738.62805	24.88700	42.49987	593.94775	46.48457	137.52307	670.23450	69.68963	139.62033	941.26050	320.31021	135.03407	957.35120	196.24284	-40.34497	977.69684 
377	3.760	-1.11355	51.67912	740.21075	25.39509	41.11259	594.20483	46.07581	136.29912	670.40662	70.41409	138.76416	941.34625	321.22247	135.32910	956.72064	198.05830	-40.59391	978.03296 
378	3.770	2.08612	50.62543	739.82837	25.92746	39.47771	594.36353	45.74081	134.99089	670.38623	71.15051	137.98491	941.23840	322.11636	135.51704	956.01166	199.87427	-40.80582	978.12384 
379	3.780	2.62718	48.51632	739.94891	26.48811	37.67179	594.40009	45.46008	133.58348	670.16162	71.87121	137.22862	940.81024	323.04736	135.44559	955.15393	201.47375	-41.28091	978.04517 
380	3.790	3.60535	47.16930	739.83154	27.02652	35.94656	594.23322	45.20472	132.15591	669.77209	72.68815	136.45938	940.27393	324.00247	135.29709	954.27789	202.55602	-42.03606	978.02673 
381	3.800	4.21989	45.68571	739.59430	27.47429	34.32293	593.89789	44.84787	130.77560	669.21747	73.65021	135.67517	939.69623	325.02509	135.11723	953.48792	203.96236	-42.09097	977.46320 
382	3.810	4.20556	43.32503	739.77899	27.82469	32.80475	593.54694	44.88817	129.45001	668.69153	74.71693	134.95457	939.07104	326.12238	134.83134	952.72589	205.08847	-42.57645	977.10516 
383	3.820	2.92065	42.00735	739.68713	28.16161	31.36700	593.22626	45.35063	128.27621	668.27112	75.84577	134.50648	938.44049	327.25275	134.43063	952.08844	206.06090	-43.38167	976.81573 
384	3.830	3.61791	41.08208	739.42517	28.54966	30.10811	592.98328	45.80178	127.26829	667.83014	77.01186	134.23088	937.81836	328.40326	134.02205	951.65179	207.26521	-44.35315	976.45929 
385	3.840	6.32369	40.64602	738.99591	29.06640	29.14328	592.84387	46.54548	126.26571	667.52289	78.29034	133.62073	937.29498	329.59351	133.51372	951.30835	208.31007	-44.50165	976.19312 
386	3.850	7.47417	40.68321	738.35553	29.71246	28.43493	592.80829	47.53412	125.36231	667.46222	79.56001	132.72049	936.95483	330.82855	132.83752	951.05072	209.51929	-45.35995	976.15332 
387	3.860	8.26872	39.87416	738.75684	30.40681	28.01146	592.99994	48.46657	124.73044	667.58563	80.69585	132.09230	936.90979	332.10406	132.15033	950.90179	210.67653	-45.94228	976.07629 
388	3.870	8.89958	39.08659	739.10516	31.17192	27.72468	593.37006	49.58871	124.24416	667.93353	81.90142	131.49829	937.08362	333.34579	131.57596	950.87878	211.97282	-46.44899	976.07159 
389	3.880	10.19589	38.73539	739.59747	32.01646	27.30885	593.65295	50.91483	123.76638	668.45038	83.22594	130.52765	937.36890	334.50110	131.18045	950.99860	213.45633	-47.01104	976.29974 
390	3.890	11.32179	38.12378	740.20422	32.93749	26.90758	593.92725	52.34906	123.24293	669.03168	84.42503	129.55960	937.83447	335.63162	130.84261	951.08618	214.95351	-47.55329	976.63391 
391	3.900	12.55394	37.64811	740.62103	33.91418	26.76341	594.31940	53.84786	122.80829	669.69427	85.44265	128.67645	938.40826	336.75635	130.47243	951.04993	216.50262	-48.10635	976.98511 
392	3.910	13.75091	37.18753	740.99518	34.86221	26.74456	594.64722	55.19865	122.55042	670.39691	86.44161	127.58284	938.92450	337.76700	130.01373	951.01331	218.09561	-48.73978	977.46240 
393	3.920	14.80376	36.50414	741.43378	35.79517	26.76624	594.94672	56.18835	122.07558	671.01282	87.44642	126.49100	939.41681	338.57330	129.63501	951.01105	219.45799	-49.55903	977.94519 
394	3.930	15.47414	35.76549	741.88318	36.69507	26.81566	595.32916	56.88036	121.30765	671.62067	88.37964	125.50362	939.97186	339.44025	129.65282	951.02289	221.51440	-49.80949	977.98383 
395	3.940	16.12125	34.94407	742.34204	37.51016	26.60039	595.67499	57.60783	120.72704	672.33618	89.25541	124.37740	940.44080	340.50214	129.83975	950.99072	223.25255	-50.26012	978.14185 
396	3.950	17.40246	33.84750	742.65887	38.30035	26.18164	595.91681	58.13351	120.28266	672.99701	90.09999	123.09308	940.74994	341.47870	129.94556	950.89838	224.73845	-50.91319	978.25751 
397	3.960	18.63376	32.62107	742.90668	39.07222	25.87316	596.16968	58.17116	119.76218	673.54785	90.85146	121.79604	940.99915	342.26385	130.18207	950.88916	226.21873	-51.55709	978.38617 
398	3.970	19.05773	31.59534	743.27850	39.83198	25.62968	596.47858	58.13032	119.26230	674.09369	91.53795	120.61153	941.25085	342.92844	130.48270	950.86877	227.68562	-52.11870	978.52161 
399	3.980	18.94653	30.82173	743.71460	40.65311	25.26748	596.64252	58.10081	118.85535	674.55396	92.26853	119.54286	941.54718	343.57611	130.54303	950.68280	228.98338	-52.53378	978.49219 
